<svg xmlns="http://www.w3.org/2000/svg" width="64.85" height="35" viewBox="0 0 64.85 35"><rect class="svg__rect" x="0" y="0" width="64.85" height="35" fill="#31C4F3"/><rect class="svg__rect" x="64.85" y="0" width="0" height="35" fill="#389AD5"/><path class="svg__text" d="M15.00 22L13.46 22L16.68 13.47L18.01 13.47L21.24 22L19.69 22L18.99 20.01L15.69 20.01L15.00 22ZM17.34 15.28L16.10 18.82L18.58 18.82L17.34 15.28ZM24.59 19.57L24.59 19.57L26.06 19.57Q26.06 20.25 26.40 20.59Q26.74 20.93 27.38 20.93L27.38 20.93Q27.98 20.93 28.33 20.54Q28.68 20.14 28.68 19.45L28.68 19.45L28.68 13.47L30.16 13.47L30.16 19.45Q30.16 20.68 29.40 21.40Q28.63 22.12 27.38 22.12L27.38 22.12Q26.04 22.12 25.31 21.44Q24.59 20.77 24.59 19.57ZM35.62 22L34.08 22L37.30 13.47L38.63 13.47L41.86 22L40.31 22L39.62 20.01L36.31 20.01L35.62 22ZM37.97 15.28L36.73 18.82L39.20 18.82L37.97 15.28ZM46.91 22L45.19 22L47.83 17.70L45.25 13.47L46.96 13.47L48.75 16.55L50.55 13.47L52.26 13.47L49.68 17.70L52.31 22L50.59 22L48.75 18.87L46.91 22Z" fill="#FFFFFF"/><path class="svg__text" d="" fill="#FFFFFF" x="77.85"/></svg>